PathFileType	4	(X/Y/Z)	T1_P2_NoVision_Movement_2_0-733.trc
DataRate	CameraRate	NumFrames	NumMarkers	Units	OrigDataRate	OrigDataStartFrame	OrigNumFrames
60	60	7	27	m	60	458	733
Frame#	Time	RHip			RKnee			RAnkle			RBigToe			RSmallToe			RHeel			LHip			LKnee			LAnkle			LBigToe			LSmallToe			LHeel			Neck			Head			Nose			RShoulder			RElbow			RWrist			RThumb			RIndex			RPinky			LShoulder			LElbow			LWrist			LThumb			LIndex			LPinky		
		X1	Y1	Z1	X2	Y2	Z2	X3	Y3	Z3	X4	Y4	Z4	X5	Y5	Z5	X6	Y6	Z6	X7	Y7	Z7	X8	Y8	Z8	X9	Y9	Z9	X10	Y10	Z10	X11	Y11	Z11	X12	Y12	Z12	X13	Y13	Z13	X14	Y14	Z14	X15	Y15	Z15	X16	Y16	Z16	X17	Y17	Z17	X18	Y18	Z18	X19	Y19	Z19	X20	Y20	Z20	X21	Y21	Z21	X22	Y22	Z22	X23	Y23	Z23	X24	Y24	Z24	X25	Y25	Z25	X26	Y26	Z26	X27	Y27	Z27
459	7.65	463.2358333473915	3646.700843544803	556.8770356016686	889.4833540074192	3729.711099739073	593.9792033899959	1231.6540545354392	3683.436609789709	609.7712187140673	1321.3805152412463	3606.553320004202	605.5945674881109	1293.4476593244856	3606.5171231371546	535.086468353615	1261.7619722183429	3687.1243813254923	629.9567201705541	461.8399143672852	3510.690092320726	736.7368648526553	872.5372666747064	3554.85582985144	745.025228163877	1203.6712463936901	3583.8333862780714	729.4576716314746	1310.445606150549	3550.8949510576276	682.4059759686527	1272.9341366530907	3473.7169820700656	715.2442456569279	1254.7282777284104	3612.3308428378	726.1403755232616	-126.93872706652061	3554.5458570720425	656.2736804191728	-388.4017053501565	3510.0046530184723	632.8116134517207	-235.3508874431084	3455.178210115294	601.5453773796947	-43.8294464084297	3695.0746320049525	560.1501220104134	196.89756517077393	3787.875048051068	518.1989968376032	412.5161962410449	3690.8624476193	435.8759777900191	507.91597555093756	3563.9305003487134	418.8428102337098	505.93976213435076	3550.682233013911	398.58921197071805	524.9162231039684	3672.9681631993935	416.7312731300791	-25.762634475393217	3563.1159359084445	857.5296969210768	225.6664430776159	3451.4920813134745	850.4100476236918	478.1612603362937	3446.1360154732874	849.7134912132866	582.5168384100115	3455.5282514478768	820.2126613333583	602.5559680253343	3438.3096913284326	829.4694920634552	602.3127529762415	3445.4703179453827	882.9816573271295
460	7.666666666666667	460.80283827861047	3645.882875046388	557.0120068566779	887.2152634824006	3729.3641472227805	594.0314174963065	1230.2917727824351	3683.3539549179236	609.4159698300477	1320.9468952797733	3606.9433121715165	605.55417824973	1291.9322747526426	3605.0695276028146	533.9749213085635	1261.4179009214163	3688.346440929462	630.0491912051806	461.1661478940788	3510.864564302016	736.7331885128239	873.6958944374337	3557.9932945599367	749.0586608056252	1203.7082103805747	3583.940508588795	729.5253446085582	1310.154839227616	3550.7164624950656	682.3247219221192	1272.1198076212277	3473.469688234816	715.012628329681	1253.6198163070467	3612.8865276724446	726.6741340090161	-126.89892321921651	3556.4734037738403	657.9718744854903	-388.354664355899	3509.953099829665	632.8009718872551	-235.93077654968218	3455.7193842467145	601.8353994092797	-44.35395562414605	3689.8690281689464	559.0820515449378	196.83992320288914	3787.811384117168	518.1692927405957	411.7393834656875	3690.152106305728	435.57636312200316	507.39755980888384	3558.098169705172	418.3252181038212	505.90307855819754	3550.451456222522	398.52861393703154	524.5774695327946	3671.560860702867	415.71166857161944	-24.951291971189317	3556.6779718987277	855.1470537641005	225.31231554449755	3450.7830464293484	849.9628588673409	477.14403482349906	3445.580117758461	849.8758552079298	582.6923043726987	3455.4512431945595	820.2767575256075	602.7096446216343	3438.390828986277	829.5257217246107	602.218014459443	3445.0056238008183	882.8939008282935
461	7.683333333333334	460.41227629827154	3643.4212222626597	555.7570077250072	885.7719532665529	3727.230682495059	593.1021587529234	1228.8904162439926	3683.1325096211276	609.0281108106781	1322.4770146876715	3608.7941985888933	606.4547068808199	1290.3146123557387	3603.5337934938098	532.7028410352572	1261.3627783992629	3688.969982180412	629.6068726157164	463.1386165782177	3512.0347721252774	737.3004599598335	874.3251905199384	3559.08863459221	751.7636978163214	1203.8329870440673	3583.8949647923528	729.486242066951	1308.1368322185108	3550.003410672387	681.919999075958	1271.5956055914075	3473.4228937387647	714.9351686846065	1251.7795855595073	3612.98113457447	726.3693726365345	-126.80836668920853	3560.736053959223	661.668297935388	-388.3220139868849	3509.900263364063	632.7870388350602	-237.27061152517862	3459.2715267421804	603.0896556538702	-44.50939200873587	3682.5325003809485	557.3989630400728	196.8363735071242	3787.669697545341	518.1035035297805	410.91733293293987	3688.187852186139	434.303476581208	505.6164444740281	3550.92016477928	417.5021966451636	505.84946945670816	3550.148015332026	398.46583203278317	524.785021958726	3672.5091338970233	416.37347651287155	-24.091912611946583	3548.421489060881	852.3123074418123	226.6764314434905	3450.664583228344	849.7513440209162	477.09634509681473	3445.926240914752	849.518971341663	583.4139720467603	3455.1595342593373	820.1750953218076	602.7018312415719	3438.6423297028123	829.6704730134746	602.629857489386	3444.718260306244	882.658504294988
462	7.7	461.1915759162181	3642.0179615000543	554.9138861137687	885.9085747759584	3725.926713462077	592.6651678722268	1228.001360392131	3682.7317320841194	608.7829491982468	1324.2642977397068	3611.5623706924753	607.2793638459755	1289.94586726789	3604.55308727506	533.5305589797745	1261.7920923571282	3688.0356905242875	629.1051646582653	466.03196816340727	3513.5352994821164	738.1266185631123	874.7347125811659	3559.6816845359244	753.0141873314899	1203.7264688916919	3583.809137639568	729.3976698717672	1305.7106846094796	3549.055398253341	681.4911736403881	1271.4334378790952	3473.5616567968673	715.0358422548195	1249.5535145554288	3612.413389406175	725.5067455250221	-126.70504466606728	3566.1118492596042	666.3219038359744	-388.317193912467	3509.8584820127626	632.7679168254981	-238.90258164723724	3465.8833843826988	605.2328433357086	-44.59293666457804	3676.7162357616953	556.0173725215593	196.95549730084238	3787.5168688286913	518.0334482638214	410.16284735152783	3684.974863426791	431.97755184176924	503.49817337445586	3544.362365891564	416.0647904097352	505.7384060071009	3549.7893377574205	398.3701243443304	525.3124970807941	3675.0490088956403	418.166967128383	-23.743781875918497	3542.1516322185776	850.6997412152331	228.8908929067389	3450.6788432343274	849.6838215498359	478.0748357455692	3446.7655517801713	848.3753659764689	585.2564778934955	3454.522830996244	819.8158620650081	602.6977759638048	3438.982610762767	829.8857970776027	603.6705866836993	3443.7244793098685	881.8432590528244
463	7.716666666666667	461.33331677557726	3643.7067616037716	556.1559267936871	886.6589489857463	3727.003664834016	593.7699000879056	1227.1902440499514	3682.028583777761	608.6227730655371	1324.562285570128	3613.076958920308	606.7059384419456	1290.977678352187	3608.2621151740013	536.7293374380497	1262.3982324510885	3685.381781181375	628.5863218012787	466.53565627908336	3514.345632175938	738.7014868816852	875.1968974551603	3561.4834424351657	753.7772783385129	1202.8825367410473	3583.73544627979	729.2728396751324	1304.2535508082337	3548.3398380049675	681.2734465366668	1270.9469883861905	3473.518560096096	714.9986114537732	1247.0415306975997	3611.216122331073	724.8660481703836	-126.64247905830504	3570.105313599458	669.8023722957815	-388.3294032081945	3509.822211890514	632.7401131532118	-239.78267179414323	3471.7703264091847	607.0383902074865	-45.083947264803754	3673.9385283383667	555.3247561633535	197.00979098408763	3787.292981336091	517.9484221885215	409.58191374774105	3681.9599943372173	429.73149142357533	501.6562569383856	3539.477225259728	413.7850046520385	505.5727425185288	3549.491322767869	398.24858990289704	525.6988769440977	3677.2061494568943	419.647954878943	-23.68314900534907	3539.032091350008	850.8447542521269	230.40662583051392	3450.8910068625028	849.7988092708838	479.15532782864824	3447.6089649594483	846.9236379619244	587.347603001948	3453.556992775772	819.1640453282448	602.7403379366665	3439.273039937405	830.0514723973512	605.0576415731866	3442.3897396105763	880.7528288150692
464	7.733333333333333	460.3005625892511	3646.734789160215	558.3711941732145	886.4284026097635	3729.4060238087386	595.8565441874734	1226.1630502299665	3681.1119584025987	608.4524771638492	1323.2241564323026	3611.000337647608	604.6984928873399	1292.0630905603207	3611.5081999172753	539.7638960098909	1262.3574209331548	3682.0791011246965	627.8273960461469	463.58320715881104	3514.3541539433177	738.9099868679303	874.5021979624482	3561.363513606621	753.4064272991782	1201.0863539444213	3583.8164907465616	729.195761134541	1303.8820601497773	3547.9570042775404	681.2129238330958	1270.0219690854292	3472.9074506513325	714.466444984809	1244.5831166180924	3609.9828603817014	725.0562691409875	-126.62681796288695	3571.6109705637327	671.1592401102886	-388.3306683009938	3509.771175296553	632.7050984930618	-239.5969354835067	3473.8025650271657	607.5882912399861	-46.30217802728492	3672.823233371711	554.9799270992977	196.418791737651	3786.859193921064	517.820187062206	409.39411192655314	3680.9874971922	428.98469767775083	499.8211605300375	3536.9661182207897	411.7669901179062	505.39593655387637	3549.35576494321	398.1484406402551	525.8283336924433	3678.2617797490834	420.3731061714273	-23.31789520543196	3537.5229678396736	851.7795006970156	230.6759709684699	3451.299426591486	850.0536174443025	479.70000953904963	3447.978670822375	846.2643398129661	588.7576179231057	3452.6650793049553	818.6290519448462	602.8055081097655	3439.5198272279013	830.1063270164195	606.1381462138997	3441.555555330772	880.0601798778019
465	7.75	458.93510324203316	3648.764128493813	559.8540224115453	884.5864242915711	3731.2404932496947	597.8104804171155	1225.67195128014	3680.463897974806	608.4558189346365	1320.7392974223435	3605.3476332876417	602.1997150858831	1291.7929346655126	3611.194539771999	540.0411346259763	1261.2973680527516	3679.863262488453	626.9418565446559	459.4972619540268	3514.069404391397	738.8993587655249	871.1400396503653	3554.777728768725	750.1598521217279	1199.3031816143384	3584.1776731089576	729.2988890943969	1303.7932903143692	3547.700442468251	681.1524320711923	1269.4372730217406	3471.5256239532628	713.25338927125	1242.944994142934	3609.5661321621315	725.8314636724438	-126.62676823262802	3571.5330775663106	671.1573270694272	-388.31026566442307	3509.7066180891416	632.674730301482	-239.2841701343136	3471.6269225393353	606.9371384013987	-47.919697357927824	3671.973659797196	554.6712614549817	194.532409140781	3786.350000555906	517.7414315391361	409.6662403133269	3682.589241984092	430.14969124118824	498.124679717933	3537.181719452554	411.3631342115766	505.2595266979896	3549.35378451239	398.09871734063523	525.6332399500814	3677.622771692175	420.2047078083842	-22.68968301530265	3536.5628335645306	852.4797419241884	230.43831367974704	3451.549443126605	850.2139421244511	479.8049950061752	3447.7266362861546	847.0369060902491	589.7306718142463	3452.1420807814134	818.8876357672036	602.8921783187072	3439.723938614636	830.089402901564	606.486566286284	3441.0279779736725	879.9681237666475
